<?xml version="1.0" encoding="utf-8"?>
<!-- Generator: Adobe Illustrator 24.1.1, SVG Export Plug-In . SVG Version: 6.00 Build 0)  -->
<svg version="1.1" id="Capa_1" xmlns="http://www.w3.org/2000/svg" xmlns:xlink="http://www.w3.org/1999/xlink" x="0px" y="0px"
	 viewBox="0 0 250 200" style="enable-background:new 0 0 250 200;" xml:space="preserve">
<style type="text/css">
	.st0{fill:#FFFFFF;}
	.st1{fill:#D61616;}
</style>
<path class="st0" d="M250,200c-83.4,0-166.7,0-250,0C0,133.3,0,66.6,0,0c83.4,0,166.7,0,250,0C250,66.7,250,133.4,250,200z
	 M174.4,84.2c-1.2,9-1.6,17.3-3.5,25.4c-4.7,19.4-14.3,35.3-34.6,41.8c-14.6,4.7-29.3,3.9-43.8-0.7c-13.8-4.3-23.5-13.5-29.5-26.6
	c-5.6-12-6.6-24.7-5.3-37.6c1-9.7,3.3-19.1,8.9-27.3c7.3-10.9,17.8-15.9,30.9-14.5c12.5,1.3,19,9.8,22.2,20.9
	c2.2,7.4,3.2,15.3,3.9,23c0.3,3.8,1.2,5.4,5.1,5.4c9.5-0.1,19-0.1,28.5,0.1c3.5,0.1,4.1-1.7,4.2-4.6c0.8-16.8-2.9-32.5-11.4-46.9
	c-7.2-12.4-17.9-21-31.8-25.2c-15.7-4.7-31.6-4.8-47.4-1.2c-16.4,3.7-29.2,13.1-37.7,27.5c-16.3,27.7-19.3,57.2-9.7,87.6
	c8.2,25.9,24.6,44.8,50.5,54.3c22,8,44.6,9.1,67.5,5c20.6-3.7,37.7-13.8,50.3-30.8c12.3-16.6,18.7-35.6,21.4-55.8
	c0.7-5.3,0.8-10.6,0.7-15.9c0-1.3-2-3.7-3.2-3.7C198.6,84.1,186.5,84.2,174.4,84.2z M193.8,75.4c19.9,0.2,35.7-15.2,36-34.9
	c0.3-20-15.7-36.5-35.6-36.8c-20.6-0.3-36.3,14.8-36.6,34.8C157.5,59.6,172.8,75.2,193.8,75.4z"/>
<path d="M174.4,84.2c12,0,24.2-0.1,36.3,0.2c1.1,0,3.1,2.4,3.2,3.7c0.1,5.3,0,10.7-0.7,15.9c-2.7,20.3-9.1,39.2-21.4,55.8
	c-12.6,17-29.7,27.1-50.3,30.8c-22.8,4.1-45.5,3-67.5-5c-25.9-9.5-42.3-28.5-50.5-54.3c-9.6-30.4-6.6-60,9.7-87.6
	c8.5-14.4,21.2-23.8,37.7-27.5c15.9-3.6,31.8-3.5,47.4,1.2c13.8,4.2,24.5,12.7,31.8,25.2c8.4,14.4,12.1,30.2,11.4,46.9
	c-0.1,3-0.7,4.7-4.2,4.6c-9.5-0.2-19-0.1-28.5-0.1c-3.8,0-4.7-1.6-5.1-5.4c-0.7-7.7-1.8-15.6-3.9-23c-3.2-11-9.7-19.5-22.2-20.9
	c-13.1-1.4-23.5,3.6-30.9,14.5c-5.5,8.2-7.8,17.6-8.9,27.3c-1.4,12.9-0.3,25.6,5.3,37.6c6.1,13.1,15.7,22.2,29.5,26.6
	c14.5,4.5,29.2,5.3,43.8,0.7c20.3-6.5,29.9-22.4,34.6-41.8C172.8,101.6,173.2,93.2,174.4,84.2z"/>
<path class="st1" d="M193.8,75.4c-21-0.2-36.3-15.8-36.1-36.9c0.2-20,16-35,36.6-34.8c19.9,0.2,35.8,16.7,35.6,36.8
	C229.5,60.2,213.7,75.5,193.8,75.4z"/>
</svg>
